# xmcd CD database file
#
# Track frame offsets:
#	150
#	27248
#	54333
#	79743
#	123433
#	139000
#	169685
#	197783
#	237394
#	271884
#	299737
#	323710
#
# Disc length: 4720 seconds
#
# Revision: 0
# Processed by: cddbd v1.5.1PL0 Copyright (c) Steve Scherf et al.
# Submitted via: CDex 1.51
#
DISCID=ac126e0c
DTITLE=Trüby Trio - retreated
DYEAR=2004
DGENRE=Broken Beat
TTITLE0=New Music (Whignomy Bros Remix)
TTITLE1=Make A Move feat. Wunmi (Guillaume Boulard Remix)
TTITLE2=New Music (Gucciman's New Music Remix)
TTITLE3=Allegre 2004 feat. Marcia Montez (Louie Vega's Elements of Life Main Mix)
TTITLE4=Jaleo feat. Concha Buika (Senor Coconut Remiz)
TTITLE5=Make A Move feat. Wunmi (S.U.M.O. Rebounce)
TTITLE6=Runnin feat. Wunmi (Nickodemus Remix)
TTITLE7=Allegre 2004 feat. Marcia Montez (Una Bombers Electric Chair Treatment)
TTITLE8=Universal Love feat. Marcus Begg (Tiefschwarz Remix)
TTITLE9=Cruisin (Fabrice Lig Rework)
TTITLE10=Satisfaction (Salzmann and Zech's Slowdown Mix)
TTITLE11=Lover Uncovered feat. Marcus Begg (Yam Who? Rework)
EXTD=YEAR: 2004
EXTT0=
EXTT1=
EXTT2=
EXTT3=
EXTT4=
EXTT5=
EXTT6=
EXTT7=
EXTT8=
EXTT9=
EXTT10=
EXTT11=
PLAYORDER=
